<svg width="76" height="92" viewBox="0 0 76 92" fill="none" xmlns="http://www.w3.org/2000/svg">
<g id="Logo Shapes 13">
<g id="Clip path group">
<mask id="mask0_37_860" style="mask-type:luminance" maskUnits="userSpaceOnUse" x="0" y="0" width="76" height="92">
<g id="clip0">
<path id="Vector" d="M75.0715 0H0V92H75.0715V0Z" fill="white"/>
</g>
</mask>
<g mask="url(#mask0_37_860)">
<g id="Group">
<path id="Vector_2" d="M37.542 91.9996H46.6217V73.6318C46.1981 73.5916 45.7545 73.5371 45.3267 73.4709C44.613 73.3891 43.8994 73.2685 43.1963 73.1205C42.8013 73.0532 42.417 72.9726 42.0316 72.8779C41.7785 72.8104 41.5265 72.7572 41.2734 72.6897C40.8012 72.582 40.3289 72.4471 39.8577 72.3004C38.3364 71.8579 36.8367 71.3098 35.3661 70.6589C34.8176 70.4176 34.2688 70.162 33.7196 69.892C33.368 69.7169 33.0165 69.5287 32.6607 69.3406C31.2217 68.5742 29.818 67.7118 28.456 66.757V66.9724C27.173 66.1327 25.972 65.1172 24.876 63.9451C24.8655 63.9451 24.8538 63.9308 24.8432 63.9178C23.8659 63.0705 22.9214 62.1686 21.9992 61.2265C21.0991 60.2974 20.2309 59.3294 19.3965 58.3069C18.973 57.7956 18.5494 57.2688 18.1566 56.7316C18.1332 56.7169 18.1139 56.6938 18.1015 56.6654C17.7055 56.1464 17.3328 55.6416 16.9707 55.1083C16.1797 54.004 15.4438 52.8738 14.7471 51.6903C14.3733 51.0714 14.0218 50.4381 13.6713 49.7919C13.396 49.2949 13.1419 48.8096 12.8909 48.2983C12.8803 48.2854 12.8803 48.2724 12.8697 48.2581C12.6164 47.7737 12.3745 47.2758 12.1444 46.7646C11.5409 45.4592 10.9702 44.1135 10.4503 42.7419C10.2311 42.1632 10.0108 41.5845 9.81494 40.9914C9.40834 39.808 9.03457 38.6103 8.70526 37.3996C8.58455 36.9688 8.4755 36.538 8.36538 36.102C8.14514 35.2417 7.94183 34.3671 7.76183 33.4912C7.69512 33.1824 7.62947 32.8593 7.57441 32.5504C7.4537 31.9717 7.35524 31.4059 7.25677 30.8272C7.15723 30.1952 7.05875 29.562 6.98145 28.9301C6.88298 28.2306 6.7951 27.517 6.72945 26.8175C6.6638 26.2258 6.62357 25.6497 6.57592 25.0683C6.55369 24.8257 6.54205 24.5973 6.53146 24.3547C6.51482 24.2258 6.50386 24.0958 6.49863 23.9654C6.47639 23.6423 6.46581 23.3166 6.45417 22.996C6.4104 22.1215 6.38851 21.2335 6.38851 20.332C3.53181 25.5251 1.57215 31.3793 0.629999 37.5348C-0.31215 43.6904 -0.216883 50.0169 0.909996 56.1256C0.920585 56.1515 0.920606 56.1918 0.931195 56.219C2.48445 64.5054 5.87645 72.1041 10.7326 78.1762C15.5885 84.2481 21.7197 88.557 28.4486 90.6267C31.4214 91.5453 34.4761 92.0065 37.542 91.9996Z" fill="#4584FF"/>
<path id="Vector_3" d="M46.6216 73.6357V51.0571C46.6346 49.5858 46.4093 48.1257 45.9587 46.7618C45.5083 45.3977 44.8414 44.1568 43.997 43.1106C43.1526 42.0645 42.1472 41.234 41.0391 40.6672C39.931 40.1004 38.7421 39.8086 37.5414 39.8086C36.3407 39.8086 35.1518 40.1004 34.0437 40.6672C32.9356 41.234 31.9302 42.0645 31.0858 43.1106C30.2414 44.1568 29.5746 45.3977 29.1241 46.7618C28.6735 48.1257 28.4483 49.5858 28.4612 51.0571V66.7584C34.0275 70.662 40.2287 73.0104 46.6216 73.6357Z" fill="#4584FF"/>
<path id="Vector_4" d="M24.8482 63.9172C22.7491 61.6928 21.0654 58.9407 19.9116 55.8478C18.7578 52.7549 18.1609 49.3939 18.1614 45.9932C18.1622 44.4167 18.287 42.8441 18.5342 41.2971C18.7915 39.762 19.1702 38.2614 19.6651 36.8164C21.1316 32.5557 23.5767 28.9091 26.7032 26.32C26.7032 26.307 26.7033 26.307 26.7149 26.307C27.22 25.7282 27.7461 25.1625 28.2851 24.6201C28.2935 24.6189 28.3011 24.6137 28.3064 24.6058C33.326 19.5043 39.2862 15.9825 45.6693 14.3466C52.0524 12.7106 58.6648 13.01 64.9319 15.2188C65.1437 15.272 65.3556 15.3486 65.5673 15.4342C59.1959 6.64166 50.3158 1.1783 40.7558 0.169466C31.1959 -0.83937 21.6843 2.68315 14.1802 10.0114C11.1749 12.9508 8.54993 16.4307 6.39447 20.3327C6.41125 31.6024 9.33623 42.5768 14.751 51.6858C17.5598 56.4001 20.9691 60.5299 24.8482 63.9172Z" fill="#4584FF"/>
<path id="Vector_5" d="M75.0722 90.8715V70.0551L75.0679 70.054L75.0643 70.0508L75.062 70.0461L75.0616 70.0408H75.05C74.7651 69.8124 74.4791 69.597 74.2028 69.3544C73.5325 68.8353 72.8845 68.2786 72.2481 67.7129C70.6522 66.2884 69.1339 64.7378 67.7026 63.0713C67.4284 62.7612 67.153 62.4381 66.8787 62.1149C66.8353 62.0617 66.7909 61.9943 66.7475 61.9398C66.3515 61.47 65.9787 60.999 65.6166 60.5124C65.2206 60.0011 64.8363 59.4743 64.4519 58.9552C64.1449 58.5115 63.8262 58.0547 63.5191 57.5966C63.3211 57.3008 63.1241 56.9906 62.9261 56.6818C62.7609 56.4392 62.6084 56.1835 62.4538 55.9409C62.2229 55.5646 61.9922 55.1882 61.773 54.8106C61.6957 54.6809 61.6195 54.5511 61.5539 54.4343C61.268 53.9503 60.982 53.452 60.7194 52.9408C60.6804 52.8813 60.645 52.8184 60.6136 52.7526C60.3171 52.2011 60.0311 51.6483 59.7569 51.0839C59.4932 50.5856 59.2519 50.0886 59.0327 49.576C58.9332 49.3879 58.8453 49.1868 58.7574 48.9843C58.5277 48.5003 58.3074 48.0163 58.1221 47.531C58.0999 47.4778 58.0776 47.4376 58.0565 47.3831C57.8034 46.8186 57.5726 46.2399 57.3534 45.6611C57.3534 45.6339 57.3428 45.6209 57.3312 45.5936C57.167 45.2044 57.024 44.8151 56.881 44.4258C56.9139 44.9448 56.9245 45.4756 56.9245 45.9998V68.6173C56.9254 70.1315 57.0507 71.6418 57.2983 73.1253C58.1413 78.1386 60.37 82.6419 63.608 85.875C66.8462 89.108 70.8955 90.8729 75.0722 90.8715Z" fill="#4584FF"/>
<path id="Vector_6" d="M75.0713 70.0548V45.9944C75.0695 35.2831 72.0128 24.9096 66.43 16.6681C66.1558 16.2516 65.8698 15.8338 65.5733 15.4302C65.3999 15.3591 65.223 15.3006 65.0439 15.255C65.0191 15.23 64.9882 15.2158 64.956 15.2148H64.9349C64.5283 15.0669 64.1111 14.9319 63.694 14.797C63.6283 14.784 63.551 14.7567 63.4737 14.7308C63.0788 14.6088 62.6721 14.5011 62.2665 14.3934C61.6842 14.2325 61.1018 14.0975 60.5088 13.9769C60.1912 13.9094 59.8735 13.8562 59.5559 13.7887C59.1715 13.7212 58.7765 13.668 58.3816 13.6135C58.0184 13.559 57.6564 13.5188 57.2943 13.4838C57.1079 13.4708 56.9205 13.4435 56.7235 13.4306C55.779 13.3501 54.8239 13.3086 53.8645 13.3086C53.6221 13.3086 53.3806 13.3086 53.1509 13.3229C52.9391 13.3229 52.7443 13.3358 52.5357 13.3501C52.422 13.3406 52.3078 13.3449 52.1947 13.3631C52.0412 13.3631 51.8877 13.3761 51.7341 13.3903C51.3275 13.4033 50.922 13.4435 50.5154 13.4838C50.3502 13.498 50.1861 13.511 50.0209 13.5383C49.5052 13.5915 49.0002 13.659 48.4835 13.7537C48.1658 13.8069 47.8365 13.8614 47.5178 13.9276C47.4576 13.9281 47.398 13.9422 47.342 13.9691C47.1006 14.0093 46.8476 14.0625 46.6009 14.117C45.6681 14.3181 44.7341 14.5738 43.8234 14.8696C43.5481 14.9514 43.2739 15.0448 43.0103 15.1395C41.5307 15.6504 40.0754 16.2612 38.6511 16.9692C38.2455 17.1716 37.8495 17.387 37.4546 17.618C36.5757 18.089 35.7191 18.6133 34.8741 19.1751C34.5226 19.3905 34.1826 19.6319 33.8417 19.8746C32.8643 20.561 31.9094 21.3019 30.9829 22.0948C30.5212 22.4983 30.0605 22.9019 29.6063 23.3197C29.1774 23.7233 28.7497 24.1398 28.3357 24.5577C28.324 24.5789 28.3087 24.597 28.2912 24.6109C28.1705 24.7186 28.0614 24.8405 27.9407 24.9612C27.5171 25.392 27.1052 25.8488 26.6997 26.3069C29.8946 23.6527 33.6667 22.2367 37.5266 22.2427H37.5372C40.0788 22.2427 42.5956 22.8571 44.9433 24.0508C47.291 25.2445 49.4234 26.9941 51.2185 29.1993C54.5415 33.2677 56.5468 38.6756 56.8621 44.419C57.0051 44.8083 57.148 45.1976 57.3122 45.5869C57.3238 45.6142 57.3344 45.6271 57.3344 45.6544C57.5652 46.2331 57.795 46.8119 58.0375 47.3763C58.0586 47.4308 58.0809 47.471 58.1031 47.5243C58.3001 48.0096 58.5203 48.4936 58.7384 48.9776C58.8263 49.18 58.9142 49.3811 59.0137 49.5693C59.2435 50.0883 59.4849 50.5789 59.738 51.0771C60.0122 51.6416 60.2982 52.1944 60.5947 52.7459C60.6261 52.8117 60.6615 52.8746 60.7005 52.934C60.9631 53.4323 61.2385 53.9293 61.535 54.4276C61.6006 54.5483 61.6767 54.6702 61.754 54.8039C61.9732 55.1815 62.204 55.5578 62.4349 55.9341C62.5884 56.1768 62.7419 56.4324 62.9071 56.6751C63.0935 56.9839 63.2915 57.294 63.5001 57.5899C63.8071 58.048 64.126 58.4982 64.433 58.9485C64.8174 59.4675 65.2017 59.9983 65.5977 60.5056C65.9598 60.991 66.3325 61.462 66.7285 61.933C66.7719 61.9875 66.8165 62.055 66.8599 62.1082C67.1342 62.4313 67.4094 62.757 67.6836 63.0646C69.115 64.7311 70.6335 66.2816 72.2292 67.7061C72.8646 68.2849 73.5137 68.8364 74.184 69.3619C74.4582 69.5903 74.744 69.8187 75.031 70.0341H75.0426C75.0404 70.0387 75.0398 70.0442 75.0408 70.0495C75.0419 70.0547 75.0446 70.0593 75.0484 70.062C75.0522 70.0647 75.0568 70.0655 75.061 70.0642C75.0654 70.0629 75.069 70.0595 75.0713 70.0548Z" fill="#4584FF"/>
<g id="Group_2" style="mix-blend-mode:multiply" opacity="0.1">
<path id="Vector_7" d="M18.1612 45.9974C18.162 44.4209 18.2868 42.8483 18.5339 41.3013C15.8656 33.1743 14.1524 22.9335 14.1863 10.0156C11.1809 12.9549 8.55602 16.4348 6.40057 20.3369C6.41736 31.6066 9.34234 42.581 14.757 51.69C17.5639 56.4036 20.9711 60.5334 24.8479 63.9214C22.7489 61.697 21.0652 58.9449 19.9114 55.852C18.7576 52.7591 18.1607 49.398 18.1612 45.9974Z" fill="#4584FF"/>
</g>
<g id="Group_3" style="mix-blend-mode:multiply" opacity="0.16">
<path id="Vector_8" d="M46.621 73.6339V71.5888C39.7976 69.6442 33.5258 65.4894 28.4606 59.5586V66.7578C34.027 70.6609 40.2282 73.0088 46.621 73.6339Z" fill="#4584FF"/>
</g>
<g id="Group_4" style="mix-blend-mode:multiply" opacity="0.1">
<path id="Vector_9" d="M72.3267 28.7594C70.8859 24.3803 68.8964 20.3034 66.43 16.6759C66.1558 16.2594 65.8698 15.8416 65.5733 15.438C65.3999 15.3669 65.223 15.3084 65.0439 15.2628C65.0191 15.2378 64.9882 15.2236 64.956 15.2226H64.9349C64.5283 15.0747 64.1111 14.9397 63.694 14.8048C63.6283 14.7918 63.551 14.7646 63.4737 14.7386C63.0788 14.6166 62.6721 14.5089 62.2665 14.4012C61.6842 14.2403 61.1018 14.1054 60.5088 13.9847C60.1912 13.9172 59.8735 13.864 59.5559 13.7965C59.1715 13.729 58.7765 13.6758 58.3816 13.6213C58.0184 13.5668 57.6564 13.5266 57.2943 13.4916C57.1079 13.4786 56.9205 13.4514 56.7235 13.4384C55.779 13.3579 54.8239 13.3164 53.8645 13.3164C53.6221 13.3164 53.3806 13.3164 53.1509 13.3307C52.9391 13.3307 52.7443 13.3437 52.5357 13.3579C52.422 13.3485 52.3078 13.3529 52.1947 13.3709C52.0412 13.3709 51.8877 13.3839 51.7341 13.3982C51.3275 13.4111 50.922 13.4514 50.5154 13.4916C50.3502 13.5059 50.1861 13.5188 50.0209 13.5461C49.5052 13.5993 49.0002 13.6668 48.4835 13.7615C48.1658 13.8147 47.8365 13.8692 47.5178 13.9354C47.4576 13.936 47.398 13.95 47.342 13.9769C47.1006 14.0171 46.8476 14.0703 46.6009 14.1248C45.6681 14.326 44.7341 14.5816 43.8234 14.8774C43.5481 14.9592 43.2739 15.0526 43.0103 15.1473C41.5307 15.6582 40.0754 16.2691 38.6511 16.977C38.2455 17.1794 37.8495 17.3948 37.4546 17.6258C36.5757 18.0968 35.7191 18.6211 34.8741 19.1829C34.5226 19.3984 34.1826 19.6397 33.8417 19.8824C32.8643 20.5688 31.9094 21.3097 30.9829 22.1026C30.5212 22.5062 30.0605 22.9097 29.6063 23.3275C29.1774 23.7311 28.7497 24.1476 28.3357 24.5655C28.324 24.5868 28.3087 24.6048 28.2912 24.6187C28.1705 24.7264 28.0614 24.8484 27.9407 24.969C27.5171 25.3998 27.1052 25.8566 26.6997 26.3147C29.8946 23.6606 33.6667 22.2446 37.5266 22.2505H37.5372C45.7062 19.9148 57.5759 19.6397 71.7073 28.3999C71.9202 28.5038 72.1318 28.6257 72.3267 28.7594Z" fill="#4584FF"/>
</g>
<g id="Group_5" style="mix-blend-mode:multiply" opacity="0.1">
<path id="Vector_10" d="M75.0722 83.7437V70.059L75.0679 70.0579L75.0643 70.0547L75.062 70.05L75.0616 70.0447H75.05C74.7651 69.8163 74.4791 69.6009 74.2028 69.3583C73.5325 68.8392 72.8845 68.2825 72.2481 67.7168C70.6522 66.2923 69.1339 64.7417 67.7026 63.0752C67.4284 62.7651 67.153 62.442 66.8787 62.1188C66.8353 62.0656 66.7909 61.9982 66.7475 61.9437C66.3515 61.4739 65.9787 61.0029 65.6166 60.5163C65.2206 60.005 64.8363 59.4782 64.4519 58.9591C64.1449 58.5154 63.8262 58.0586 63.5191 57.6005C63.3211 57.3047 63.1241 56.9945 62.9261 56.6857C62.7609 56.4431 62.6084 56.1874 62.4538 55.9448C62.2229 55.5685 61.9922 55.1921 61.773 54.8145C61.6957 54.6848 61.6195 54.555 61.5539 54.4382C61.268 53.9542 60.982 53.4559 60.7194 52.9447C60.6804 52.8852 60.645 52.8223 60.6136 52.7565C60.3171 52.205 60.0311 51.6522 59.7569 51.0878C59.4932 50.5895 59.2519 50.0925 59.0327 49.5799C58.9332 49.3918 58.8453 49.1907 58.7574 48.9882C58.5277 48.5042 58.3074 48.0202 58.1221 47.5349C58.0999 47.4817 58.0776 47.4415 58.0565 47.387C57.8034 46.8225 57.5726 46.2438 57.3534 45.665C57.3534 45.6378 57.3428 45.6248 57.3312 45.5975C57.167 45.2083 57.024 44.819 56.881 44.4297C56.9139 44.9487 56.9245 45.4795 56.9245 46.0037V51.9598C60.6923 63.7527 66.6251 74.3241 74.2631 82.8548C74.5236 83.1546 74.798 83.4478 75.0722 83.7437Z" fill="#4584FF"/>
</g>
<g id="Group_6" style="mix-blend-mode:screen" opacity="0.6">
<path id="Vector_11" d="M22.0046 61.2208C17.5169 56.5989 13.833 50.919 11.1715 44.5184C8.51001 38.1177 6.92529 31.1268 6.51149 23.9609C6.5009 24.1621 6.47867 24.794 6.45643 25.7504C6.44052 26.4683 6.45536 27.187 6.50089 27.9031C6.52363 28.8351 6.58938 29.7648 6.69784 30.6878C6.74231 31.2069 6.80374 31.7259 6.86303 32.2761C6.95092 32.8146 7.03879 33.3804 7.12668 33.963C7.30244 35.1205 7.57669 36.3182 7.86152 37.5561C8.20247 38.7668 8.47672 40.0592 8.92673 41.2971C9.33333 42.5623 9.81616 43.8003 10.3032 45.0382C10.8517 46.2489 11.3684 47.4738 11.972 48.604C12.5427 49.7615 13.2013 50.8243 13.8165 51.8598C14.4645 52.8836 15.1125 53.8386 15.7595 54.699C16.3592 55.5235 16.9932 56.3096 17.659 57.0541C18.2637 57.7678 18.845 58.3738 19.3839 58.8981C19.8303 59.3576 20.2958 59.7885 20.7784 60.1892C21.4667 60.7965 21.9061 61.1468 22.0046 61.2208Z" fill="#4584FF"/>
</g>
<g id="Group_7" style="mix-blend-mode:screen" opacity="0.6">
<path id="Vector_12" d="M75.05 70.0461H75.0616C74.9949 69.9657 74.6984 69.6153 74.205 69.0781C73.6555 68.4721 72.8655 67.5975 71.9211 66.5607C71.4594 66.0235 70.9681 65.4577 70.4387 64.8517C69.9092 64.2458 69.3957 63.5736 68.825 62.9287C67.7269 61.5558 66.5739 60.0895 65.4758 58.5687C64.3556 57.0479 63.3126 55.4544 62.3353 53.9803C61.8736 53.2017 61.3823 52.4997 60.9588 51.7743C60.5352 51.049 60.1244 50.3885 59.7506 49.7695C59.0041 48.5173 58.3995 47.4675 57.9717 46.7006C57.6541 46.1362 57.4233 45.7586 57.3237 45.5977C61.2081 55.6527 67.359 64.136 75.05 70.0461Z" fill="#4584FF"/>
</g>
<g id="Group_8" style="mix-blend-mode:screen" opacity="0.6">
<path id="Vector_13" d="M53.8696 13.3114C57.6124 13.3048 61.337 13.9483 64.9324 15.2228H64.9759C64.9759 15.2228 64.4157 14.914 63.395 14.4689C61.9894 13.8541 60.5463 13.3768 59.0791 13.0415C56.9922 12.5422 54.8704 12.2945 52.744 12.3019C51.5451 12.2913 50.3466 12.3584 49.1534 12.503C47.9347 12.6652 46.6937 12.8806 45.475 13.1894C44.2563 13.4983 43.0481 13.9031 41.8749 14.3573C41.2902 14.5676 40.7148 14.8149 40.1511 15.0982C39.591 15.3577 39.0414 15.6354 38.5035 15.9326C37.4756 16.4738 36.4747 17.0892 35.5059 17.7752C34.6278 18.3652 33.7772 19.0151 32.9583 19.7216C32.2594 20.3023 31.585 20.9265 30.938 21.5915C30.3451 22.1573 29.8728 22.7217 29.4673 23.1487C28.7748 23.983 28.3693 24.5086 28.3026 24.602C35.484 17.2876 44.5317 13.2921 53.8696 13.3114Z" fill="#4584FF"/>
</g>
<g id="Group_9" style="mix-blend-mode:multiply" opacity="0.3">
<path id="Vector_14" d="M75.0718 90.8711V45.9942C75.07 35.283 72.0134 24.9094 66.4306 16.668C67.1876 17.9331 67.9013 19.2113 68.5716 20.544C69.2538 21.897 69.8769 23.2934 70.4383 24.7275C70.9212 25.9252 71.3383 27.1501 71.7227 28.3881C71.8 28.6178 71.8656 28.8591 71.9429 29.1018C72.3949 30.583 72.7836 32.092 73.1077 33.6227C73.437 35.1475 73.7006 36.6925 73.8976 38.2513C74.0734 39.8084 74.2151 41.3734 74.2713 42.9344C74.3274 44.4954 74.3158 46.0565 74.3042 47.6707L74.2607 52.4719L74.2056 62.0665V71.6611C74.2056 75.3896 74.224 79.1169 74.2607 82.8427C74.2713 85.2122 74.3042 87.5803 74.3264 89.9342L73.5851 89.9212L72.1028 89.7201L70.6501 89.3633L69.2111 88.8663L67.806 88.2071L66.456 87.4L65.1599 86.4579L63.9306 85.3809L62.7775 84.1962L61.6901 82.8985L60.6905 81.4984L59.7905 79.9919L58.9995 78.3763L58.3187 76.6894L57.748 74.9402L57.298 73.1236C58.1407 78.137 60.3693 82.6407 63.6073 85.8741C66.8455 89.1074 70.8949 90.8724 75.0718 90.8711Z" fill="#4584FF"/>
</g>
<g id="Group_10" style="mix-blend-mode:multiply" opacity="0.3">
<path id="Vector_15" d="M37.5423 91.9994H46.622V76.2151C46.4801 78.8389 46.4028 81.477 46.3043 84.1008C46.2164 86.5091 46.1508 88.9019 46.0925 91.3129L39.1528 91.0975C37.9013 91.0703 36.6825 91.0845 35.4744 90.9678C34.2599 90.8628 33.0506 90.6831 31.851 90.4292C30.6547 90.1992 29.4704 89.8846 28.3038 89.4872C27.1193 89.1039 25.9528 88.6411 24.8095 88.1013C23.6787 87.6303 22.5691 86.9711 21.4605 86.3781C20.3953 85.6657 19.2867 85.0467 18.2765 84.2123C17.2177 83.4727 16.2446 82.5838 15.245 81.7222C14.7516 81.2914 14.2921 80.7944 13.8177 80.3363C13.3341 79.8804 12.8725 79.3908 12.4348 78.87C11.9954 78.3588 11.5338 77.8605 11.106 77.3363L9.83533 75.7077C9.41179 75.1887 9.04435 74.5775 8.63881 74.0118C8.25445 73.4343 7.84784 72.8815 7.4963 72.2626L6.40992 70.4459L5.42097 68.5488C5.07049 67.9168 4.78568 67.2511 4.48814 66.6023C4.1906 65.9535 3.86234 65.2969 3.60927 64.6105C3.07985 63.2506 2.54408 61.8855 2.12689 60.4516C1.65464 59.08 1.33699 57.6397 0.940979 56.2266C2.49424 64.5128 5.88623 72.1115 10.7423 78.1836C15.5984 84.2556 21.7295 88.5644 28.4584 90.6343C31.4284 91.5492 34.4798 92.0078 37.5423 91.9994Z" fill="#4584FF"/>
</g>
</g>
</g>
</g>
</g>
</svg>
